<svg xmlns="http://www.w3.org/2000/svg" xmlns:xlink="http://www.w3.org/1999/xlink" width="2000" zoomAndPan="magnify" viewBox="0 0 1500 1499.999933" height="2000" preserveAspectRatio="xMidYMid meet" version="1.0"><defs><g/><clipPath id="67a53fc76e"><rect x="0" width="472" y="0" height="1189"/></clipPath></defs><rect x="-150" width="1800" fill="#ffffff" y="-149.999993" height="1799.99992" fill-opacity="1"/><rect x="-150" width="1800" fill="#ffffff" y="-149.999993" height="1799.99992" fill-opacity="1"/><g transform="matrix(1, 0, 0, 1, 516, 218)"><g clip-path="url(#67a53fc76e)"><g fill="#070c52" fill-opacity="1"><g transform="translate(0.710128, 937.510962)"><g><path d="M 460.28125 -275.171875 L 439.03125 0 C 368.144531 0 297.472656 0 227.015625 0 C 156.554688 0 85.890625 0 15.015625 0 L 15.015625 -20.015625 C 49.203125 -20.015625 69.628906 -29.1875 76.296875 -47.53125 C 82.960938 -65.875 86.296875 -88.804688 86.296875 -116.328125 L 86.296875 -756.71875 C 86.296875 -785.070312 82.960938 -808.421875 76.296875 -826.765625 C 69.628906 -845.109375 49.203125 -854.28125 15.015625 -854.28125 L 15.015625 -874.296875 L 315.203125 -874.296875 L 315.203125 -854.28125 C 281.015625 -854.28125 260.582031 -845.109375 253.90625 -826.765625 C 247.238281 -808.421875 243.90625 -785.070312 243.90625 -756.71875 C 243.90625 -683.34375 243.90625 -625.597656 243.90625 -583.484375 C 243.90625 -541.378906 243.90625 -510.523438 243.90625 -490.921875 C 243.90625 -471.328125 243.90625 -458.195312 243.90625 -451.53125 C 243.90625 -444.863281 243.90625 -440.484375 243.90625 -438.390625 C 243.90625 -436.304688 243.90625 -431.929688 243.90625 -425.265625 C 243.90625 -418.597656 243.90625 -405.253906 243.90625 -385.234375 C 243.90625 -365.222656 243.90625 -333.953125 243.90625 -291.421875 C 243.90625 -248.898438 243.90625 -190.535156 243.90625 -116.328125 C 243.90625 -88.804688 248.28125 -65.875 257.03125 -47.53125 C 265.789062 -29.1875 282.257812 -20.015625 306.4375 -20.015625 C 322.28125 -20.015625 339.375 -28.351562 357.71875 -45.03125 C 376.0625 -61.707031 393.15625 -88.804688 409 -126.328125 C 424.84375 -163.847656 437.769531 -213.460938 447.78125 -275.171875 Z M 460.28125 -275.171875 "/></g></g></g></g></g></svg>